# File created by Blade
# Date/Time:  Wed Jan 28 15:39:58 2015
#---------------------------------------------------------
:version 1.10
:name HOM
:units
  mass 1.0
  length 1.000000
  angle deg
:documentation
     Acclaim Skeleton File
:root
   axis xyz
   order TX TY TZ RX RY RZ
   position 0.000000 0.000000 0.000000
   orientation 0 0 0
:bonedata
   begin
      id 1
      name Spine_dum
      direction 0.000000 1.000000 0.000000
      length 6.864287
      axis 0.0 0.0 0.0 xyz
   end
   begin
      id 2
      name LeftUpLeg_dum
      direction 1.000000 0.000000 0.000000
      length 4.117376
      axis 0.0 0.0 0.0 xyz
   end
   begin
      id 3
      name RightUpLeg_dum
      direction -1.000000 0.000000 0.000000
      length 4.117376
      axis 0.0 0.0 0.0 xyz
   end
   begin
      id 4
      name Spine
      direction 0.000000 1.000000 0.000000
      length 0.000000
      axis 0.0 0.0 0.0 xyz
      dof rx ry rz
   end
   begin
      id 5
      name Spine_dum1
      direction 0.000000 1.000000 0.000000
      length 15.393827
      axis 0.0 0.0 0.0 xyz
   end
   begin
      id 6
      name Spine_dum2
      direction 0.000000 1.000000 0.000000
      length 9.314826
      axis 0.0 0.0 0.0 xyz
   end
   begin
      id 7
      name Spine_dum3
      direction 0.000000 1.000000 0.000000
      length 9.314826
      axis 0.0 0.0 0.0 xyz
   end
   begin
      id 8
      name Head
      direction 0.000000 1.000000 0.000000
      length 4.527550
      axis 0.0 0.0 0.0 xyz
      dof rx ry rz
   end
   begin
      id 9
      name LeftShoulder
      direction 1.000000 0.000000 0.000000
      length 8.275398
      axis 0.0 0.0 -90.0 xyz
      dof rx ry rz
   end
   begin
      id 10
      name LeftArm
      direction 1.000000 0.000000 0.000000
      length 12.002200
      axis 0.0 0.0 -90.0 xyz
      dof rx ry rz
   end
   begin
      id 11
      name LeftForeArm
      direction 1.000000 0.000000 0.000000
      length 10.144633
      axis 0.0 0.0 -90.0 xyz
      dof ry rz rx
   end
   begin
      id 12
      name LeftHand
      direction 0.000000 0.000000 0.000000
      length 0.000000
      axis 0.0 0.0 -90.0 xyz
      dof rx ry rz
   end
   begin
      id 13
      name LeftHand_dum1
      direction 0.000000 0.000000 0.000000
      length 0.000000
      axis 0.0 0.0 -90.0 xyz
   end
   begin
      id 14
      name LeftHand_dum2
      direction 1.000000 0.000000 0.000000
      length 3.937000
      axis 0.0 0.0 -90.0 xyz
   end
   begin
      id 15
      name LeftHandThumb1
      direction 0.000000 0.000000 1.000000
      length 3.937000
      axis 0.0 0.0 -90.0 xyz
      dof rx rz ry
   end
   begin
      id 16
      name RightShoulder
      direction -1.000000 0.000000 0.000000
      length 8.275398
      axis 0.0 0.0 90.0 xyz
      dof rx ry rz
   end
   begin
      id 17
      name RightArm
      direction -1.000000 0.000000 0.000000
      length 12.002200
      axis 0.0 0.0 90.0 xyz
      dof rx ry rz
   end
   begin
      id 18
      name RightForeArm
      direction -1.000000 0.000000 0.000000
      length 10.144633
      axis 0.0 0.0 90.0 xyz
      dof ry rz rx
   end
   begin
      id 19
      name RightHand
      direction 0.000000 0.000000 0.000000
      length 0.000000
      axis 0.0 0.0 90.0 xyz
      dof rx ry rz
   end
   begin
      id 20
      name RightHand_dum1
      direction 0.000000 0.000000 0.000000
      length 0.000000
      axis 0.0 0.0 90.0 xyz
   end
   begin
      id 21
      name RightHand_dum2
      direction -1.000000 0.000000 0.000000
      length 3.937000
      axis 0.0 0.0 90.0 xyz
   end
   begin
      id 22
      name RightHandThumb1
      direction 0.000000 0.000000 1.000000
      length 3.937000
      axis 0.0 0.0 90.0 xyz
      dof rx rz ry
   end
   begin
      id 23
      name LeftUpLeg
      direction 0.000000 -1.000000 0.000000
      length 19.394322
      axis 0.0 0.0 0.0 xyz
      dof rx ry rz
   end
   begin
      id 24
      name LeftLeg
      direction 0.000000 -1.000000 0.000000
      length 17.609563
      axis 0.0 0.0 0.0 xyz
      dof rx ry rz
   end
   begin
      id 25
      name LeftFoot
      direction 0.000000 -0.258819 0.965926
      length 6.085393
      axis 15.0 0.0 0.0 xyz
      dof rx ry rz
   end
   begin
      id 26
      name LeftToeBase
      direction 0.000000 0.000000 1.000000
      length 2.952750
      axis 0.0 0.0 0.0 xyz
      dof rx ry rz
   end
   begin
      id 27
      name RightUpLeg
      direction 0.000000 -1.000000 0.000000
      length 19.394322
      axis 0.0 0.0 0.0 xyz
      dof rx ry rz
   end
   begin
      id 28
      name RightLeg
      direction 0.000000 -1.000000 0.000000
      length 17.609563
      axis 0.0 0.0 0.0 xyz
      dof rx ry rz
   end
   begin
      id 29
      name RightFoot
      direction 0.000000 -0.258819 0.965926
      length 6.085393
      axis 15.0 0.0 0.0 xyz
      dof rx ry rz
   end
   begin
      id 30
      name RightToeBase
      direction 0.000000 0.000000 1.000000
      length 2.952750
      axis 0.0 0.0 0.0 xyz
      dof rx ry rz
   end
:hierarchy
   begin
      root Spine_dum LeftUpLeg_dum RightUpLeg_dum
      Spine_dum Spine
      LeftUpLeg_dum LeftUpLeg
      RightUpLeg_dum RightUpLeg
      Spine Spine_dum1 Spine_dum2 Spine_dum3
      Spine_dum1 Head
      Spine_dum2 LeftShoulder
      Spine_dum3 RightShoulder
      LeftShoulder LeftArm
      LeftArm LeftForeArm
      LeftForeArm LeftHand
      LeftHand LeftHand_dum1 LeftHand_dum2
      LeftHand_dum1 LeftHandThumb1
      RightShoulder RightArm
      RightArm RightForeArm
      RightForeArm RightHand
      RightHand RightHand_dum1 RightHand_dum2
      RightHand_dum1 RightHandThumb1
      LeftUpLeg LeftLeg
      LeftLeg LeftFoot
      LeftFoot LeftToeBase
      RightUpLeg RightLeg
      RightLeg RightFoot
      RightFoot RightToeBase
   end

# File created by Blade
# Date/Time:  Wed Jan 28 15:40:07 2015
# Frame Rate: 120.000 fps
#------------------------------------------------------
:FULLY-SPECIFIED
:DEGREES
1500
root -8.552685 40.389436 -16.617485 21.594682 -43.912918 42.730690
Spine 13.850129 1.973738 23.352166
Head -40.397791 -32.741975 3.081790
LeftShoulder -19.495958 13.858230 -8.415195
LeftArm 6.093392 15.939699 -91.076648
LeftForeArm -17.029864 -0.000000 7.272299
LeftHand -1.501043 -0.000000 -9.613731
LeftHandThumb1 -26.253704 0.000000 33.147579
RightShoulder -15.019378 8.573404 -43.888765
RightArm 12.267068 79.907824 40.993221
RightForeArm -0.922301 -0.000000 102.080691
RightHand -14.844005 0.000000 -44.995551
RightHandThumb1 -24.326973 -0.000000 -32.862282
LeftUpLeg -17.429483 2.087241 18.352404
LeftLeg 152.610131 -0.000000 -0.000000
LeftFoot 26.751512 -1.120986 -26.273579
LeftToeBase 4.832493 -0.000000 -0.000000
RightUpLeg -56.569184 -11.892741 -15.947871
RightLeg 20.378096 -0.000000 -0.000000
RightFoot -26.202805 -17.867062 15.041353
RightToeBase 10.995263 -0.000000 -0.000000
1501
root -8.536092 40.391433 -16.597183 21.461933 -43.991339 42.775930
Spine 13.850394 2.057068 23.344558
Head -40.286363 -32.720803 2.993856
LeftShoulder -19.516335 13.813847 -8.408315
LeftArm 6.071977 15.968030 -91.046298
LeftForeArm -16.895786 -0.000000 7.289547
LeftHand -1.448828 -0.000000 -9.628373
LeftHandThumb1 -26.253704 0.000000 33.147579
RightShoulder -14.959052 8.597532 -43.909728
RightArm 12.222241 79.691181 40.842033
RightForeArm -1.075865 -0.000000 102.099647
RightHand -14.869717 -0.000000 -44.992348
RightHandThumb1 -24.326973 -0.000000 -32.862282
LeftUpLeg -17.454616 2.081198 18.354598
LeftLeg 152.613096 -0.000000 -0.000000
LeftFoot 26.648652 -1.073824 -26.282524
LeftToeBase 5.362039 -0.000000 -0.000000
RightUpLeg -56.509378 -11.894295 -15.984901
RightLeg 20.390369 -0.000000 -0.000000
RightFoot -26.174394 -17.806203 15.022874
RightToeBase 10.966681 -0.000000 -0.000000
1502
root -8.519532 40.394626 -16.576547 21.314303 -44.106021 42.842125
Spine 13.862006 2.179095 23.294015
Head -40.213034 -32.694890 2.970998
LeftShoulder -19.612019 13.859052 -8.412323
LeftArm 6.208354 16.063344 -90.977662
LeftForeArm -16.966209 0.000000 7.233067
LeftHand -1.422714 -0.000000 -9.757027
LeftHandThumb1 -26.253704 0.000000 33.147579
RightShoulder -14.892140 8.516647 -43.884178
RightArm 12.464219 79.562647 40.982094
RightForeArm -1.235699 -0.000000 102.128033
RightHand -14.962941 -0.000000 -44.944803
RightHandThumb1 -24.326973 -0.000000 -32.862282
LeftUpLeg -17.455457 2.204139 18.299391
LeftLeg 152.619862 -0.000000 -0.000000
LeftFoot 26.466129 -0.779646 -26.472706
LeftToeBase 5.724605 -0.000000 -0.000000
RightUpLeg -56.457850 -11.870642 -16.043681
RightLeg 20.394588 -0.000000 -0.000000
RightFoot -26.114404 -17.767497 14.959992
RightToeBase 10.948314 -0.000000 -0.000000
1503
root -8.501202 40.398004 -16.552804 21.169826 -44.219168 42.902496
Spine 13.857334 2.320748 23.260978
Head -40.086857 -32.720622 2.949790
LeftShoulder -19.635509 13.809401 -8.370493
LeftArm 6.196047 16.087871 -90.966215
LeftForeArm -16.874876 -0.000000 7.236174
LeftHand -1.562530 0.000000 -9.636729
LeftHandThumb1 -26.253704 0.000000 33.147579
RightShoulder -14.804835 8.571025 -43.908224
RightArm 11.851323 79.310691 40.267983
RightForeArm -1.308226 -0.000000 102.134701
RightHand -14.856746 -0.000000 -45.019494
RightHandThumb1 -24.326973 -0.000000 -32.862282
LeftUpLeg -17.451023 2.002724 18.362714
LeftLeg 152.584788 -0.000000 -0.000000
LeftFoot 26.902343 -1.423715 -26.209308
LeftToeBase 4.849308 -0.000000 -0.000000
RightUpLeg -56.403232 -11.858341 -16.099288
RightLeg 20.391274 -0.000000 -0.000000
RightFoot -26.132357 -17.708647 15.051272
RightToeBase 11.094750 -0.000000 -0.000000
1504
root -8.482890 40.401373 -16.528830 21.037533 -44.300575 42.945773
Spine 13.840407 2.433570 23.263775
Head -39.989504 -32.755432 2.935309
LeftShoulder -19.593592 13.948814 -8.388950
LeftArm 6.283742 15.937658 -90.949031
LeftForeArm -16.609924 0.000000 7.342194
LeftHand -1.680096 0.000000 -9.693303
LeftHandThumb1 -26.253704 0.000000 33.147579
RightShoulder -14.714916 8.651289 -43.944825
RightArm 11.189776 79.049155 39.495405
RightForeArm -1.451335 0.000000 102.125906
RightHand -14.887534 -0.000000 -44.975833
RightHandThumb1 -24.326973 -0.000000 -32.862282
LeftUpLeg -17.475175 1.954900 18.397806
LeftLeg 152.541464 -0.000000 -0.000000
LeftFoot 27.145232 -1.607125 -26.077738
LeftToeBase 4.479028 -0.000000 -0.000000
RightUpLeg -56.348084 -11.887544 -16.101898
RightLeg 20.402451 -0.000000 -0.000000
RightFoot -25.996373 -17.639588 14.845605
RightToeBase 10.810151 -0.000000 -0.000000
1505
root -8.466290 40.406661 -16.505014 20.898905 -44.368686 43.021669
Spine 13.813403 2.518903 23.240501
Head -39.934628 -32.742878 2.936087
LeftShoulder -19.655426 13.991562 -8.408672
LeftArm 6.381042 15.957256 -90.903210
LeftForeArm -16.640079 -0.000000 7.293602
LeftHand -1.619261 -0.000000 -9.741513
LeftHandThumb1 -26.253704 0.000000 33.147579
RightShoulder -14.643921 8.670004 -43.946608
RightArm 10.931577 78.839687 39.123162
RightForeArm -1.544184 -0.000000 102.131017
RightHand -14.968381 -0.000000 -44.783594
RightHandThumb1 -24.326973 -0.000000 -32.862282
LeftUpLeg -17.511795 2.001297 18.369306
LeftLeg 152.554687 -0.000000 -0.000000
LeftFoot 27.042417 -1.534999 -26.064031
LeftToeBase 4.619299 -0.000000 -0.000000
RightUpLeg -56.284111 -11.907809 -16.157018
RightLeg 20.388165 -0.000000 -0.000000
RightFoot -25.929446 -17.634407 14.768791
RightToeBase 10.706714 -0.000000 -0.000000
1506
root -8.447067 40.412296 -16.478480 20.741000 -44.463847 43.120465
Spine 13.779380 2.618305 23.198730
Head -39.820302 -32.710588 2.878321
LeftShoulder -19.667686 13.973748 -8.380368
LeftArm 6.372688 15.995683 -90.903559
LeftForeArm -16.588584 -0.000000 7.292310
LeftHand -1.710613 -0.000000 -9.672093
LeftHandThumb1 -26.253704 0.000000 33.147579
RightShoulder -14.576399 8.652456 -43.953432
RightArm 10.910862 78.632534 38.982209
RightForeArm -1.665393 -0.000000 102.136691
RightHand -15.005303 -0.000000 -44.852767
RightHandThumb1 -24.326973 -0.000000 -32.862282
LeftUpLeg -17.537512 2.061628 18.317530
LeftLeg 152.541503 -0.000000 -0.000000
LeftFoot 27.042969 -1.471676 -26.074626
LeftToeBase 4.571500 -0.000000 -0.000000
RightUpLeg -56.228795 -11.908104 -16.249293
RightLeg 20.386716 -0.000000 -0.000000
RightFoot -25.871994 -17.605378 14.716956
RightToeBase 10.607696 -0.000000 -0.000000
1507
root -8.430331 40.418339 -16.454482 20.616170 -44.549384 43.173709
Spine 13.759572 2.758509 23.197783
Head -39.769026 -32.758311 2.888032
LeftShoulder -19.652412 13.943860 -8.347811
LeftArm 6.346633 16.037915 -90.904512
LeftForeArm -16.488595 -0.000000 7.278871
LeftHand -1.675378 0.000000 -9.736222
LeftHandThumb1 -26.253704 0.000000 33.147579
RightShoulder -14.561543 8.649858 -43.960677
RightArm 10.790001 78.383337 38.731036
RightForeArm -1.770688 0.000000 102.125598
RightHand -15.039397 -0.000000 -44.925002
RightHandThumb1 -24.326973 -0.000000 -32.862282
LeftUpLeg -17.542789 2.071427 18.320268
LeftLeg 152.546376 -0.000000 -0.000000
LeftFoot 26.976115 -1.451023 -26.314218
LeftToeBase 4.800169 -0.000000 -0.000000
RightUpLeg -56.149823 -11.867831 -16.335744
RightLeg 20.348255 -0.000000 -0.000000
RightFoot -25.805037 -17.645052 14.662535
RightToeBase 10.484005 -0.000000 -0.000000
1508
root -8.413480 40.424383 -16.427643 20.467781 -44.637769 43.237184
Spine 13.760995 2.874379 23.181142
Head -39.733073 -32.777389 2.928161
LeftShoulder -19.689704 13.876588 -8.322005
LeftArm 6.309549 16.061063 -90.899261
LeftForeArm -16.447275 -0.000000 7.274390
LeftHand -1.703004 0.000000 -9.610406
LeftHandThumb1 -26.253704 0.000000 33.147579
RightShoulder -14.506898 8.707785 -43.982185
RightArm 10.380772 78.145057 38.226531
RightForeArm -1.850424 -0.000000 102.093670
RightHand -14.964050 -0.000000 -44.999100
RightHandThumb1 -24.326973 -0.000000 -32.862282
LeftUpLeg -17.540368 2.102153 18.303111
LeftLeg 152.510005 -0.000000 -0.000000
LeftFoot 27.045470 -1.462284 -26.362361
LeftToeBase 4.563988 -0.000000 -0.000000
RightUpLeg -56.046545 -11.830633 -16.428705
RightLeg 20.295070 -0.000000 -0.000000
RightFoot -25.741803 -17.674462 14.614482
RightToeBase 10.419026 -0.000000 -0.000000
1509
root -8.396072 40.431100 -16.400530 20.308512 -44.718141 43.336855
Spine 13.744875 2.954843 23.143797
Head -39.704570 -32.775497 2.950694
LeftShoulder -19.681293 13.909716 -8.326090
LeftArm 6.312703 16.030751 -90.893588
LeftForeArm -16.461244 -0.000000 7.322110
LeftHand -1.733725 -0.000000 -9.661600
LeftHandThumb1 -26.253704 0.000000 33.147579
RightShoulder -14.461550 8.684855 -44.016723
RightArm 10.403540 77.986461 38.204020
RightForeArm -1.936397 -0.000000 102.067810
RightHand -14.946152 -0.000000 -44.934172
RightHandThumb1 -24.326973 -0.000000 -32.862282
LeftUpLeg -17.581015 2.147811 18.264241
LeftLeg 152.492255 -0.000000 -0.000000
LeftFoot 27.027547 -1.401412 -26.450019
LeftToeBase 4.653454 -0.000000 -0.000000
RightUpLeg -55.967038 -11.822192 -16.533346
RightLeg 20.266235 -0.000000 -0.000000
RightFoot -25.700391 -17.660640 14.608579
RightToeBase 10.391120 -0.000000 -0.000000
1510
root -8.380023 40.439210 -16.370815 20.153298 -44.749790 43.418921
Spine 13.716991 2.987325 23.149064
Head -39.680687 -32.771536 2.967790
LeftShoulder -19.697415 13.916587 -8.340330
LeftArm 6.299710 15.992130 -90.901840
LeftForeArm -16.363926 -0.000000 7.359131
LeftHand -1.736507 -0.000000 -9.571728
LeftHandThumb1 -26.253704 0.000000 33.147579
RightShoulder -14.421143 8.634439 -44.031951
RightArm 10.659691 77.848868 38.374180
RightForeArm -2.074042 -0.000000 101.997634
RightHand -14.916094 -0.000000 -44.946184
RightHandThumb1 -24.326973 -0.000000 -32.862282
LeftUpLeg -17.615657 2.196809 18.235245
LeftLeg 152.476676 -0.000000 -0.000000
LeftFoot 26.965512 -1.352733 -26.391304
LeftToeBase 4.630815 -0.000000 -0.000000
RightUpLeg -55.839559 -11.849409 -16.616697
RightLeg 20.201761 -0.000000 -0.000000
RightFoot -25.655179 -17.682812 14.564044
RightToeBase 10.295596 -0.000000 -0.000000
1511
root -8.364929 40.445438 -16.338667 20.000049 -44.811685 43.474991
Spine 13.718319 3.058044 23.165624
Head -39.639989 -32.776982 2.983721
LeftShoulder -19.741578 14.000964 -8.391285
LeftArm 6.395572 16.039110 -90.876563
LeftForeArm -16.183960 -0.000000 7.339925
LeftHand -1.648376 -0.000000 -9.427894
LeftHandThumb1 -26.253704 0.000000 33.147579
RightShoulder -14.406772 8.685653 -44.066144
RightArm 10.649553 77.607416 38.270248
RightForeArm -2.356978 -0.000000 101.892545
RightHand -14.964850 0.000000 -44.998371
RightHandThumb1 -24.326973 -0.000000 -32.862282
LeftUpLeg -17.594521 2.189711 18.238759
LeftLeg 152.449827 -0.000000 -0.000000
LeftFoot 26.972459 -1.385906 -26.538029
LeftToeBase 4.589113 -0.000000 -0.000000
RightUpLeg -55.703051 -11.831099 -16.702399
RightLeg 20.139267 -0.000000 -0.000000
RightFoot -25.613610 -17.712436 14.529573
RightToeBase 10.230452 -0.000000 -0.000000
1512
root -8.348231 40.452485 -16.307983 19.820529 -44.878465 43.581950
Spine 13.715739 3.114590 23.124135
Head -39.628498 -32.802142 3.056237
LeftShoulder -19.774956 13.933016 -8.360216
LeftArm 6.325919 16.042478 -90.876040
LeftForeArm -16.319233 -0.000000 7.387079
LeftHand -1.792704 -0.000000 -9.507028
LeftHandThumb1 -26.253704 0.000000 33.147579
RightShoulder -14.382505 8.719353 -44.082398
RightArm 10.751031 77.455455 38.288615
RightForeArm -2.420793 0.000000 101.799185
RightHand -14.939586 -0.000000 -45.007946
RightHandThumb1 -24.326973 -0.000000 -32.862282
LeftUpLeg -17.583763 2.214856 18.179662
LeftLeg 152.442049 -0.000000 -0.000000
LeftFoot 26.893476 -1.320853 -26.803058
LeftToeBase 4.801697 -0.000000 -0.000000
RightUpLeg -55.593030 -11.826273 -16.817265
RightLeg 20.097257 -0.000000 -0.000000
RightFoot -25.571836 -17.761717 14.464872
RightToeBase 10.216610 -0.000000 -0.000000
